<svg width="20" height="20" viewBox="0 0 20 20" fill="none" xmlns="http://www.w3.org/2000/svg">
<g opacity="0.1">
<path d="M19.4118 17.0588C19.7366 17.0588 20 17.3221 20 17.647C20 17.9719 19.7366 18.2353 19.4118 18.2353H0.588242C0.263359 18.2353 0 17.9719 0 17.647C0 17.3221 0.263359 17.0588 0.588242 17.0588H19.4118ZM2.94117 6.47055H8.23527C8.56016 6.47055 8.82352 6.73391 8.82352 7.05879V15.8823H2.35293V7.05879C2.35293 6.73391 2.61629 6.47055 2.94117 6.47055ZM11.7647 1.76465H17.0588C17.3837 1.76465 17.647 2.02801 17.647 2.35289V15.8823H11.1765V2.35289C11.1765 2.02805 11.4398 1.76465 11.7647 1.76465Z" fill="#141111"/>
</g>
</svg>
