<svg width="20" height="20" viewBox="0 0 20 20" fill="none" xmlns="http://www.w3.org/2000/svg">
<g opacity="0.2" clip-path="url(#clip0_46_5738)">
<path d="M15.8333 9.9987C15.6123 9.9987 15.4004 10.0865 15.2441 10.2428C15.0878 10.3991 15 10.611 15 10.832V17.4987C15 17.9579 14.6267 18.332 14.1667 18.332H2.5C2.04 18.332 1.66667 17.9579 1.66667 17.4987V5.83203C1.66667 5.37286 2.04 4.9987 2.5 4.9987H9.16667C9.38768 4.9987 9.59964 4.9109 9.75592 4.75462C9.9122 4.59834 10 4.38638 10 4.16536C10 3.94435 9.9122 3.73239 9.75592 3.57611C9.59964 3.41983 9.38768 3.33203 9.16667 3.33203H2.5C1.12167 3.33203 0 4.4537 0 5.83203V17.4987C0 18.877 1.12167 19.9987 2.5 19.9987H14.1667C15.545 19.9987 16.6667 18.877 16.6667 17.4987V10.832C16.6667 10.611 16.5789 10.3991 16.4226 10.2428C16.2663 10.0865 16.0543 9.9987 15.8333 9.9987Z" fill="#141111"/>
<path d="M7.81272 9.24012C7.75479 9.29832 7.71511 9.37218 7.69856 9.45262L7.10939 12.3993C7.09618 12.4665 7.09973 12.536 7.11974 12.6016C7.13974 12.6672 7.17558 12.7268 7.2241 12.7752C7.27261 12.8236 7.3323 12.8594 7.3979 12.8793C7.4635 12.8992 7.53298 12.9026 7.60022 12.8893L10.5461 12.3001C10.6269 12.2841 10.7012 12.2444 10.7594 12.1859L17.3527 5.59262L14.4069 2.64678L7.81272 9.24012ZM19.3894 0.609283C18.9985 0.219126 18.4688 0 17.9165 0C17.3642 0 16.8345 0.219126 16.4436 0.609283L15.2902 1.76262L18.2361 4.70845L19.3894 3.55512C19.7827 3.16262 19.9994 2.63928 19.9994 2.08262C19.9994 1.52595 19.7827 1.00262 19.3894 0.609283Z" fill="#141111"/>
</g>
<defs>
<clipPath id="clip0_46_5738">
<rect width="20" height="20" fill="white"/>
</clipPath>
</defs>
</svg>
