<svg width="84" height="81" viewBox="0 0 84 81" fill="none" xmlns="http://www.w3.org/2000/svg">
<path d="M42.29 25.6685C51.2971 25.6685 58.6064 33.0245 58.6064 42.104V46.022C58.6062 55.1013 51.2969 62.4565 42.29 62.4565H30.4922V60.4233H42.29C50.2244 60.4233 56.5945 54.0039 56.5947 46.022V42.104C56.5947 34.1219 50.2246 27.7017 42.29 27.7017H21.335V79.645H19.3232V25.6685H42.29Z" fill="white" stroke="white"/>
<path d="M21.8351 80.1448H18.8232V25.1685H42.2905C51.577 25.1685 59.1066 32.7514 59.1066 42.1037V46.0215C59.1066 55.3738 51.577 62.9568 42.2905 62.9568H29.9921V59.9236H42.2905C49.9456 59.9236 56.0947 53.7309 56.0947 46.0215V42.1037C56.0947 34.3944 49.9456 28.2016 42.2905 28.2016H21.8351V80.1448Z" stroke="white" stroke-width="0.25" stroke-miterlimit="10"/>
<path d="M82.2715 24.2141L81.2588 25.9983L42.166 3.25122L41.9131 3.10474L41.6611 3.2522L2.88379 26.0012L2.63672 26.1458V79.6448H0.625V24.9485L41.916 0.7229L82.2715 24.2141Z" fill="white" stroke="white"/>
<path d="M3.13683 80.1448H0.125V24.6629L41.9142 0.144775L82.9505 24.031L81.4446 26.6851L41.9142 3.68347L3.13683 26.4323V80.1448Z" stroke="white" stroke-width="0.25" stroke-miterlimit="10"/>
<path d="M73.2891 19.9813V61.7645L42.1934 40.8045L41.9072 40.6111L41.625 40.8113L32.3389 47.3826L32.127 47.532V79.6443H20.8291V77.6111H30.1152V46.408L41.9189 38.16L70.498 57.4315L71.2773 57.9568V19.9813H73.2891Z" fill="white" stroke="white"/>
<path d="M32.6274 80.1448H20.3291V77.1116H29.6156V46.1479L41.9139 37.5539L70.7773 57.0168V19.4813H73.7892V62.704L41.9139 41.219L32.6274 47.7909V80.1448Z" stroke="white" stroke-width="0.25" stroke-miterlimit="10"/>
<path d="M82.3252 77.6116V79.6448H43.167V77.6116H82.3252Z" fill="white" stroke="white"/>
<path d="M82.8248 77.1116H42.667V80.1447H82.8248V77.1116Z" stroke="white" stroke-width="0.25" stroke-miterlimit="10"/>
<path d="M44.5518 52.967V59.803H40.5322V52.967H44.5518Z" fill="white" stroke="white"/>
<path d="M45.052 52.467H40.0322V60.3027H45.052V52.467Z" stroke="white" stroke-width="0.25" stroke-miterlimit="10"/>
</svg>
