<svg width="251" height="96" viewBox="0 0 251 96" fill="none" xmlns="http://www.w3.org/2000/svg">
<path d="M124.692 16.6736C130.361 16.6738 134.964 21.3037 134.964 27.0212V29.531C134.964 35.2486 130.361 39.8784 124.692 39.8787H117.314V38.9353H124.692C129.875 38.9351 134.034 34.7418 134.034 29.531V27.0212C134.034 21.8105 129.875 17.6172 124.692 17.6169H111.09V50.8884H110.16V16.6736H124.692Z" fill="white" stroke="white"/>
<path d="M111.589 51.3883H109.66V16.1736H124.692C130.64 16.1736 135.463 21.0308 135.463 27.0213V29.5309C135.463 35.5214 130.64 40.3787 124.692 40.3787H116.814V38.4358H124.692C129.595 38.4358 133.534 34.469 133.534 29.5309V27.0213C133.534 22.0832 129.595 18.1165 124.692 18.1165H111.589V51.3883Z" stroke="white" stroke-width="0.25" stroke-miterlimit="10"/>
<path d="M150.057 15.6282L149.586 16.4583L124.702 1.97974L124.449 1.83228L124.197 1.97974L99.3584 16.552L99.1123 16.6965V50.8879H98.1826V16.135L124.452 0.7229L150.057 15.6282Z" fill="white" stroke="white"/>
<path d="M99.6118 51.3883H97.6826V15.8497L124.45 0.144775L150.736 15.445L149.771 17.145L124.45 2.41147L99.6118 16.9831V51.3883Z" stroke="white" stroke-width="0.25" stroke-miterlimit="10"/>
<path d="M144.367 13.0308V39.2759L124.729 26.0405L124.443 25.8472L124.161 26.0464L118.213 30.2563L118.002 30.4058V50.8882H111.124V49.9458H117.072V29.8716L124.455 24.7134L142.659 36.9888L143.438 37.5142V13.0308H144.367Z" fill="white" stroke="white"/>
<path d="M118.502 51.3884H110.624V49.4455H116.572V29.6119L124.45 24.1071L142.938 36.5739V12.5308H144.868V40.2168L124.45 26.4547L118.502 30.6643V51.3884Z" stroke="white" stroke-width="0.25" stroke-miterlimit="10"/>
<path d="M150.155 49.9453V50.8887H125.433V49.9453H150.155Z" fill="white" stroke="white"/>
<path d="M150.655 49.4453H124.933V51.3882H150.655V49.4453Z" stroke="white" stroke-width="0.25" stroke-miterlimit="10"/>
<path d="M125.961 34.1597V38.1792H123.745V34.1597H125.961Z" fill="white" stroke="white"/>
<path d="M126.46 33.6597H123.245V38.6788H126.46V33.6597Z" stroke="white" stroke-width="0.25" stroke-miterlimit="10"/>
<path d="M12.666 76.8071C15.6127 76.8071 17.5752 77.4576 18.7969 78.5161C20.0054 79.5634 20.5683 81.0799 20.5684 83.0005C20.5684 84.9211 20.0053 86.4376 18.7969 87.4849C17.5752 88.5435 15.6128 89.1948 12.666 89.1948H2.13379V94.8774H1.12695V76.8071H12.666ZM2.13379 88.5522H12.666C15.0407 88.5522 16.7774 88.0699 17.9248 87.1099C19.0902 86.1348 19.5615 84.7415 19.5615 83.1274C19.5615 81.5142 19.0913 80.0926 17.9316 79.0864C16.7854 78.092 15.0474 77.5757 12.666 77.5757H2.13379V88.5522Z" fill="white" stroke="white"/>
<path d="M49.4111 76.8071V77.4487H31.7295V85.522H49.4111V86.1636H31.7295V94.1099H49.4111V94.8774H30.7227V76.8071H49.4111Z" fill="white" stroke="white"/>
<path d="M71.3232 76.8071L82.1367 94.8774H81.1689L78.4316 90.3208L78.2861 90.0786H62.5459L62.4004 90.3208L59.6621 94.8774H58.6943L69.5078 76.8071H71.3232ZM70.0508 77.8159L63.5303 88.5503L63.0684 89.3101H77.8887L77.4268 88.5503L70.9062 77.8159L70.4785 77.1118L70.0508 77.8159Z" fill="white" stroke="white"/>
<path d="M115.627 76.8071V94.8774H114.62V77.7017H96.8164V87.1685C96.8164 89.9222 96.4071 91.8634 95.4463 93.1157C94.511 94.3347 92.9676 95.0044 90.4189 95.0044H89.79V93.9829H90.168C92.2042 93.9829 93.6706 93.4163 94.5977 92.1714C95.4974 90.9631 95.8095 89.2142 95.8096 87.0425V76.8071H115.627Z" fill="white" stroke="white"/>
<path d="M150.615 76.8071V94.8774H149.608V77.7017H131.805V87.1685C131.805 89.9222 131.395 91.8634 130.435 93.1157C129.499 94.3347 127.956 95.0044 125.407 95.0044H124.778V93.9829H125.156C127.192 93.9829 128.659 93.4163 129.586 92.1714C130.486 90.9631 130.798 89.2142 130.798 87.0425V76.8071H150.615Z" fill="white" stroke="white"/>
<path d="M173.906 76.8071L184.72 94.8774H183.752L181.015 90.3208L180.869 90.0786H165.129L164.983 90.3208L162.245 94.8774H161.277L172.091 76.8071H173.906ZM172.634 77.8159L166.113 88.5503L165.651 89.3101H180.472L180.01 88.5503L173.489 77.8159L173.062 77.1118L172.634 77.8159Z" fill="white" stroke="white"/>
<path d="M195.386 76.8069V93.5569L196.21 92.8528L215.007 76.8069H215.827V94.8772H214.82V78.1272L213.995 78.8313L195.2 94.8772H194.379V76.8069H195.386ZM210.811 72.8918V73.5334H199.771V72.8918H210.811Z" fill="white" stroke="white"/>
<path d="M228.744 76.8071V85.395H248.179V76.8071H249.06V94.8774H248.179V86.2896H228.744V94.8774H227.737V76.8071H228.744Z" fill="white" stroke="white"/>
<path d="M12.666 76.1758C16.3417 76.1758 18.4443 77.1616 19.6357 78.4473C20.8336 79.7399 21.1953 81.4263 21.1953 83.001C21.1953 84.5682 20.806 86.2569 19.5908 87.5527C18.3818 88.8419 16.2762 89.8262 12.666 89.8262H2.76074V95.5098H0.5V76.1758H12.666ZM0.879883 95.2461H2.63184V89.5635H12.791C15.4738 89.5635 17.5503 89.0507 18.9629 87.9404C20.3994 86.8113 21.0664 85.1315 21.0664 83.001C21.0664 80.8704 20.3995 79.1907 18.9629 78.0615C17.5503 76.9512 15.4739 76.4385 12.791 76.4385H0.879883V95.2461ZM12.666 77.9443C15.4668 77.9443 17.0697 78.6789 17.9785 79.6357C18.8915 80.5972 19.1884 81.8715 19.1885 83.127C19.1885 84.2472 18.896 85.4948 17.9785 86.4609C17.0665 87.4211 15.4605 88.1846 12.666 88.1846H2.50684V77.9443H12.666ZM2.76074 87.9209H12.666C15.3094 87.9209 16.9127 87.2721 17.8438 86.2793C18.7718 85.2895 18.9346 84.0596 18.9346 83.127C18.9345 82.1371 18.7739 80.8754 17.8467 79.8682C16.9148 78.856 15.3089 78.207 12.666 78.207H2.76074V87.9209Z" fill="white" stroke="white"/>
<path d="M50.0391 76.1758V78.207H32.3564V85.0166H50.0391V86.9209H32.3564V93.7305H50.0391V95.5098H30.0957V76.1758H50.0391ZM30.3496 95.2461H49.7842V93.7412H32.1025V86.4053H49.7842V85.0264H32.1025V77.6914H49.7842V76.1865H30.3496V95.2461Z" fill="white" stroke="white"/>
<path d="M70.2334 76.1758L70.0732 76.4385H69.1914L69.0459 76.6816L58.3867 94.4893L57.9336 95.2461H59.7256L59.8711 95.0039L62.6104 90.4473H77.8584L80.8447 95.0195L80.9932 95.2461H82.7725L82.3193 94.4893L71.6602 76.6816L71.5146 76.4385H70.6328L70.4717 76.1758H71.6992L83.2666 95.5098H80.7939L78.0547 90.9521L77.9092 90.71H62.9219L62.7764 90.9521L60.0371 95.5098H57.5645L69.1318 76.1758H70.2334ZM77.1104 88.9424H63.5957L70.3525 77.8955L77.1104 88.9424ZM70.0518 79.0781L64.6592 87.9189L64.1953 88.6787H76.7617L76.2979 87.9189L70.9053 79.0781L70.4785 78.3779L70.0518 79.0781Z" fill="white" stroke="white"/>
<path d="M116.253 76.1758V95.5098H113.992V78.333H97.4424V87.1689C97.4423 90.221 96.8819 92.2848 95.7744 93.5859C94.6834 94.8677 92.9728 95.5097 90.418 95.5098H89.1621V93.3516H90.167C91.8656 93.3516 93.1818 92.9568 94.04 91.8672C94.8713 90.8117 95.1816 89.2102 95.1816 87.042V76.1758H116.253ZM95.4355 87.042C95.4355 88.8052 95.2737 90.4487 94.5518 91.6465C93.8634 92.7884 92.6065 93.6152 90.167 93.6152H89.416V95.2461H90.418C92.7382 95.2461 94.4898 94.7275 95.6318 93.3438C96.7513 91.9872 97.1885 89.9086 97.1885 87.042V77.9443H114.247V95.2461H115.999V76.4385H95.4355V87.042Z" fill="white" stroke="white"/>
<path d="M151.116 76.1758V95.5098H148.855V78.333H132.306V87.1689C132.306 90.221 131.745 92.2848 130.638 93.5859C129.547 94.8677 127.836 95.5097 125.281 95.5098H124.025V93.3516H125.03C126.729 93.3516 128.045 92.9568 128.903 91.8672C129.735 90.8117 130.045 89.2102 130.045 87.042V76.1758H151.116ZM130.425 87.042C130.425 88.8053 130.262 90.4487 129.54 91.6465C128.852 92.7884 127.595 93.6152 125.155 93.6152H124.405V95.2461H125.406C127.727 95.2461 129.478 94.7276 130.62 93.3438C131.74 91.9872 132.177 89.9087 132.177 87.042V77.9443H149.235V95.2461H150.988V76.4385H130.425V87.042Z" fill="white" stroke="white"/>
<path d="M172.942 76.1758L172.781 76.4385H171.772L171.628 76.6846L161.094 94.4922L160.647 95.2461H162.434L162.579 95.0039L165.318 90.4473H180.561L183.423 95.0117L183.569 95.2461H185.355L184.902 94.4893L174.243 76.6816L174.098 76.4385H173.342L173.181 76.1758H174.282L185.85 95.5098H183.377L180.638 90.9521L180.492 90.71H165.505L165.359 90.9521L162.62 95.5098H160.147L171.715 76.1758H172.942ZM179.818 88.9424H166.304L173.061 77.8965L179.818 88.9424ZM172.635 79.0781L167.242 87.9189L166.778 88.6787H179.345L178.881 87.9189L173.488 79.0781L173.062 78.3779L172.635 79.0781Z" fill="white" stroke="white"/>
<path d="M196.013 76.1753V92.1675L196.837 91.4644L214.756 76.1753H216.454V95.5093H214.067V79.5122L213.242 80.2222L195.449 95.5093H193.752V76.1753H196.013ZM194.006 95.2466H195.317L195.458 95.1265L214.447 78.9067V95.2466H216.2V76.439H214.889L214.748 76.5581L195.759 92.7769V76.439H194.006V95.2466ZM211.438 72.1343V74.0396H199.145V72.1343H211.438ZM199.398 73.7759H211.184V72.397H199.398V73.7759Z" fill="white" stroke="white"/>
<path d="M229.245 76.1758V84.7637H247.426V76.1758H249.687V95.5098H247.426V86.9209H229.245V95.5098H226.984V76.1758H229.245ZM227.364 95.2461H229.116V86.6582H247.805V95.2461H249.558V76.4385H247.805V85.0264H229.116V76.4385H227.364V95.2461Z" fill="white" stroke="white"/>
</svg>
